<svg xmlns="http://www.w3.org/2000/svg" width="900" height="540" viewBox="0 0 900 540">

<rect width="900" height="540" fill="#ffffff"/>

<!-- Title -->
<text x="450" y="35" text-anchor="middle" style="font:bold 22px Arial,sans-serif;fill:#111827">WhisperTale — Architecture</text>

<!-- ====== Layer 1: User + App ====== -->
<rect x="30" y="55" width="840" height="90" rx="14" fill="#eff6ff" stroke="#bfdbfe" stroke-width="1.5"/>
<text x="60" y="78" style="font:bold 12px Arial,sans-serif;fill:#1e40af;letter-spacing:1px">USER + APP</text>

<rect x="50" y="88" width="160" height="46" rx="8" fill="#3b82f6"/>
<text x="130" y="117" text-anchor="middle" style="font:bold 13px Arial,sans-serif;fill:#fff">Child (Browser)</text>

<line x1="210" y1="111" x2="270" y2="111" stroke="#94a3b8" stroke-width="2"/>
<polygon points="267,105 277,111 267,117" fill="#94a3b8"/>

<rect x="280" y="88" width="210" height="46" rx="8" fill="#6366f1"/>
<text x="385" y="109" text-anchor="middle" style="font:bold 13px Arial,sans-serif;fill:#fff">Next.js 14 Frontend</text>
<text x="385" y="125" text-anchor="middle" style="font:400 10px Arial,sans-serif;fill:#c7d2fe">Firebase App Hosting</text>

<line x1="490" y1="111" x2="550" y2="111" stroke="#94a3b8" stroke-width="2"/>
<polygon points="547,105 557,111 547,117" fill="#94a3b8"/>
<text x="520" y="104" text-anchor="middle" style="font:400 9px Arial,sans-serif;fill:#9ca3af">WebSocket</text>

<rect x="560" y="88" width="210" height="46" rx="8" fill="#1e40af"/>
<text x="665" y="109" text-anchor="middle" style="font:bold 13px Arial,sans-serif;fill:#fff">FastAPI Backend</text>
<text x="665" y="125" text-anchor="middle" style="font:400 10px Arial,sans-serif;fill:#93c5fd">Google Cloud Run</text>

<!-- Arrow down -->
<line x1="450" y1="145" x2="450" y2="170" stroke="#94a3b8" stroke-width="2"/>
<polygon points="443,167 450,177 457,167" fill="#94a3b8"/>

<!-- ====== Layer 2: Google AI ====== -->
<rect x="30" y="180" width="840" height="105" rx="14" fill="#fffbeb" stroke="#fde68a" stroke-width="1.5"/>
<text x="60" y="203" style="font:bold 12px Arial,sans-serif;fill:#92400e;letter-spacing:1px">GOOGLE AI SERVICES</text>

<rect x="50" y="213" width="150" height="58" rx="8" fill="#f59e0b"/>
<text x="125" y="238" text-anchor="middle" style="font:bold 13px Arial,sans-serif;fill:#fff">Gemini Live</text>
<text x="125" y="256" text-anchor="middle" style="font:400 10px Arial,sans-serif;fill:#fef3c7">Voice conversation</text>

<rect x="215" y="213" width="150" height="58" rx="8" fill="#f59e0b"/>
<text x="290" y="238" text-anchor="middle" style="font:bold 13px Arial,sans-serif;fill:#fff">Gemini 2.5 Pro</text>
<text x="290" y="256" text-anchor="middle" style="font:400 10px Arial,sans-serif;fill:#fef3c7">Story + characters</text>

<rect x="380" y="213" width="150" height="58" rx="8" fill="#f59e0b"/>
<text x="455" y="238" text-anchor="middle" style="font:bold 13px Arial,sans-serif;fill:#fff">Gemini 2.5 Flash</text>
<text x="455" y="256" text-anchor="middle" style="font:400 10px Arial,sans-serif;fill:#fef3c7">Safety + edits</text>

<rect x="545" y="213" width="150" height="58" rx="8" fill="#ec4899"/>
<text x="620" y="238" text-anchor="middle" style="font:bold 13px Arial,sans-serif;fill:#fff">Imagen 4</text>
<text x="620" y="256" text-anchor="middle" style="font:400 10px Arial,sans-serif;fill:#fce7f3">Illustrations</text>

<rect x="710" y="213" width="150" height="58" rx="8" fill="#ec4899"/>
<text x="785" y="238" text-anchor="middle" style="font:bold 13px Arial,sans-serif;fill:#fff">Cloud TTS</text>
<text x="785" y="256" text-anchor="middle" style="font:400 10px Arial,sans-serif;fill:#fce7f3">Narration audio</text>

<!-- Arrow down -->
<line x1="450" y1="285" x2="450" y2="310" stroke="#94a3b8" stroke-width="2"/>
<polygon points="443,307 450,317 457,307" fill="#94a3b8"/>

<!-- ====== Layer 3: Storage ====== -->
<rect x="30" y="320" width="840" height="105" rx="14" fill="#ecfdf5" stroke="#a7f3d0" stroke-width="1.5"/>
<text x="60" y="343" style="font:bold 12px Arial,sans-serif;fill:#065f46;letter-spacing:1px">GOOGLE CLOUD STORAGE</text>

<rect x="130" y="355" width="180" height="55" rx="8" fill="#10b981"/>
<text x="220" y="380" text-anchor="middle" style="font:bold 13px Arial,sans-serif;fill:#fff">Firestore</text>
<text x="220" y="398" text-anchor="middle" style="font:400 10px Arial,sans-serif;fill:#d1fae5">Sessions + story state</text>

<rect x="360" y="355" width="180" height="55" rx="8" fill="#10b981"/>
<text x="450" y="380" text-anchor="middle" style="font:bold 13px Arial,sans-serif;fill:#fff">Cloud Storage</text>
<text x="450" y="398" text-anchor="middle" style="font:400 10px Arial,sans-serif;fill:#d1fae5">Images + audio files</text>

<rect x="590" y="355" width="180" height="55" rx="8" fill="#10b981"/>
<text x="680" y="380" text-anchor="middle" style="font:bold 13px Arial,sans-serif;fill:#fff">Cloud Logging</text>
<text x="680" y="398" text-anchor="middle" style="font:400 10px Arial,sans-serif;fill:#d1fae5">Observability</text>

<!-- Bottom flow -->
<text x="450" y="475" text-anchor="middle" style="font:400 13px Arial,sans-serif;fill:#6b7280">Child speaks → Backend orchestrates Gemini + Imagen + TTS → Storybook delivered in real time</text>

<!-- SDK labels -->
<text x="450" y="500" text-anchor="middle" style="font:400 11px Arial,sans-serif;fill:#b0b0b0">Built with Google GenAI SDK / ADK  ·  Hosted entirely on Google Cloud</text>

</svg>
